<?xml version="1.0" encoding="UTF-8" standalone="no"?>

<svg
   version="1.1"
   xmlns="http://www.w3.org/2000/svg"
   xmlns:xlink="http://www.w3.org/1999/xlink"
   viewBox="0 0 134.40833 134.40833"
   x="0px" y="0px"
>
  <g>
    <g
       id="g4852"
       transform="matrix(0.26458333,0,0,0.26458333,52.992263,69.533929)">
      <g
         id="g4796">
        <g
           id="g4794" />
      </g>
      <g
         id="g4802">
        <g
           id="g4800">
          <path
             d="M 378.764,0 H 129.18 C 57.952,0 0,57.964 0,129.212 V 378.788 C 0,450.036 57.952,508 129.18,508 H 378.764 C 450.024,508 508,450.036 508,378.788 V 129.212 C 508,57.964 450.024,0 378.764,0 Z M 500,378.788 C 500,445.624 445.612,500 378.764,500 H 129.18 C 62.36,500 8,445.624 8,378.788 V 129.212 C 8,62.376 62.36,8 129.18,8 H 378.764 C 445.616,8 500,62.376 500,129.212 Z"
             id="path4798" />
        </g>
      </g>
      <g
         id="g4808">
        <g
           id="g4806">
          <path
             d="m 480.192,253.968 c -2.208,0 -4,1.792 -4,4 v 112.02 c 0,57.568 -48.632,106.204 -106.2,106.204 H 138.004 C 80.44,476.192 31.808,427.556 31.808,369.988 V 138 C 31.808,80.436 80.44,31.808 138.004,31.812 H 369.08 c 2.208,0 4,-1.792 4,-4 0,-2.208 -1.792,-4 -4,-4 H 138.004 C 76.104,23.812 23.808,76.104 23.808,138 v 231.988 c 0,61.904 52.296,114.204 114.196,114.204 h 231.988 c 61.904,0 114.2,-52.3 114.2,-114.208 V 257.968 c 0,-2.208 -1.792,-4 -4,-4 z"
             id="path4804" />
        </g>
      </g>
      <g
         id="g4814">
        <g
           id="g4812">
          <path
             d="M 449.808,58.188 C 427.96,36.34 398.536,23.808 369.076,23.808 c -2.208,0 -4,1.792 -4,4 0,2.208 1.792,4 4,4 27.356,0 54.72,11.676 75.076,32.036 0.78,0.78 1.804,1.172 2.828,1.172 1.024,0 2.048,-0.392 2.828,-1.172 1.564,-1.564 1.564,-4.092 0,-5.656 z"
             id="path4810" />
        </g>
      </g>
      <g
         id="g4820">
        <g
           id="g4818">
          <path
             d="m 480.192,166.668 c -2.208,0 -4,1.792 -4,4 v 59.524 c 0,2.208 1.792,4 4,4 2.208,0 4,-1.792 4,-4 v -59.524 c 0,-2.208 -1.792,-4 -4,-4 z"
             id="path4816" />
        </g>
      </g>
    </g>
    <path
       d="m 111.51425,110.0786 13.40461,17.15191 16.86953,24.34038"
       style="fill:none;stroke:#000000;stroke-width:2.03999996;stroke-linecap:butt;stroke-linejoin:miter;stroke-miterlimit:4;stroke-dasharray:none;stroke-opacity:1"
       sodipodi:nodetypes="ccc" />
    <circle
       r="15.952349"
       cy="93.736183"
       cx="108.26355"
       id="path4877"
       style="fill:none;fill-opacity:1;stroke:#000000;stroke-width:2.03999996;stroke-linecap:round;stroke-miterlimit:4;stroke-dasharray:none;stroke-opacity:1"
       transform="rotate(7.0508509)" />
    <path
       id="path4881"
       d="M 82.109423,114.08636 106.63464,94.893132"
       style="fill:none;stroke:#000000;stroke-width:1.80965555;stroke-linecap:butt;stroke-linejoin:miter;stroke-miterlimit:4;stroke-dasharray:none;stroke-opacity:1" />
    <path
       style="fill:none;stroke:#000000;stroke-width:1.80965555;stroke-linecap:butt;stroke-linejoin:miter;stroke-miterlimit:4;stroke-dasharray:none;stroke-opacity:1"
       d="M 84.60274,117.1992 109.11863,98.013232"
       id="path4889"
        />
    <path
       id="path5018"
       d="m 96.637252,122.47452 13.793868,16.51041 19.43955,20.96764"
       style="fill:none;stroke:#000000;stroke-width:2.03999996;stroke-linecap:butt;stroke-linejoin:miter;stroke-miterlimit:4;stroke-dasharray:none;stroke-opacity:1" />
    <path
       sodipodi:nodetypes="cczzc"
       id="path4905"
       d="m 120.43303,130.81879 c 1.81364,2.38302 4.33562,5.5903 1.59031,7.6235 -2.77344,2.00161 -4.62697,-0.12107 -6.99879,-3.07554 -2.37183,-2.95444 -4.38627,-5.41596 -1.59031,-7.62353 2.79592,-2.20759 4.62698,0.12113 6.99879,3.07557 z"
       style="fill:none;fill-opacity:1;stroke:#000000;stroke-width:1.80965555;stroke-linecap:round;stroke-miterlimit:4;stroke-dasharray:none;stroke-opacity:1" />
    <path
       id="path4912"
       d="m 110.43112,138.98493 14.48774,-11.75442"
       style="fill:none;stroke:#000000;stroke-width:1.69327915;stroke-linecap:butt;stroke-linejoin:miter;stroke-miterlimit:4;stroke-dasharray:none;stroke-opacity:1" />
    <path
       sodipodi:nodetypes="zszsz"
       id="path4928"
       d="m 142.12587,151.95693 c 2.12756,2.68446 -1.0867,4.0401 -4.33543,6.43225 -3.24878,2.39214 -5.48305,4.87375 -7.42935,2.2305 -1.94626,-2.64322 1.08671,-4.04006 4.33547,-6.43222 3.24878,-2.39217 5.30173,-4.91496 7.42931,-2.23053 z"
       style="fill:none;fill-opacity:1;stroke:#000000;stroke-width:2.03999996;stroke-linecap:round;stroke-miterlimit:4;stroke-dasharray:none;stroke-opacity:1" />
    <path
       sodipodi:nodetypes="czzszzc"
       id="path4955"
       d="m 167.31911,158.90457 c 1.99169,4.31177 0.49092,11.15142 -5.35026,11.76633 -5.84121,0.61492 -8.56587,2.04678 -10.54387,9.23729 -1.978,7.19051 -5.42866,8.72871 -9.69417,8.83369 -4.65983,0.11468 -6.76812,-3.26266 -6.71306,-7.00298 0.055,-3.74032 3.16329,-5.50079 7.33929,-6.93714 4.17602,-1.43636 4.47477,-5.0755 1.34044,-9.4537"
       style="fill:none;fill-opacity:1;stroke:#000000;stroke-width:2.03999996;stroke-linecap:round;stroke-miterlimit:4;stroke-dasharray:none;stroke-opacity:1" />
    <path
       sodipodi:nodetypes="ccccc"
       inkscape:connector-curvature="0"
       id="path5000"
       d="m 85.326524,105.32867 c 0.0465,-0.3996 0.403074,-0.68721 0.795843,-0.64269 0.392909,0.0456 0.675695,0.40452 0.628385,0.80851 -0.04709,0.40434 -0.405257,0.68925 -0.797959,0.64226 -0.392788,-0.0466 -0.672881,-0.40805 -0.626269,-0.80808 z"
       style="fill:none;fill-opacity:1;stroke:#000000;stroke-width:0.8246029;stroke-linecap:round;stroke-linejoin:round;stroke-miterlimit:4;stroke-dasharray:none;stroke-opacity:1" />
    <path
       style="fill:none;stroke:#000000;stroke-width:2.03999996;stroke-linecap:butt;stroke-linejoin:miter;stroke-miterlimit:4;stroke-dasharray:none;stroke-opacity:1"
       d="m 135.03307,160.68986 5.70215,6.00337 c 0,0 1.91725,-0.77128 2.7234,-1.40527 0.80616,-0.63396 2.01701,-2.21925 2.01701,-2.21925 l -4.41126,-7.00683"
       id="path5043"
       sodipodi:nodetypes="cczcc" />
    <path
       style="fill:none;fill-opacity:1;stroke:#000000;stroke-width:0.8246029;stroke-linecap:round;stroke-linejoin:round;stroke-miterlimit:4;stroke-dasharray:none;stroke-opacity:1"
       d="m 89.33499,102.37696 c 0.0465,-0.3996 0.403072,-0.68719 0.795841,-0.64268 0.392909,0.0456 0.675701,0.4045 0.628388,0.80851 -0.04709,0.40434 -0.405257,0.68924 -0.797962,0.64226 -0.392788,-0.0466 -0.672878,-0.40805 -0.626267,-0.80809 z"
       id="path5045"
       sodipodi:nodetypes="ccccc" />
    <path
       sodipodi:nodetypes="ccccc"
       id="path5047"
       d="m 93.386814,99.391452 c 0.0465,-0.399622 0.403072,-0.6872 0.795841,-0.642681 0.392908,0.0456 0.6757,0.4045 0.628388,0.80849 -0.04709,0.404349 -0.405257,0.689249 -0.797963,0.642259 -0.392784,-0.0466 -0.672877,-0.408047 -0.626266,-0.808068 z"
       style="fill:none;fill-opacity:1;stroke:#000000;stroke-width:0.8246029;stroke-linecap:round;stroke-linejoin:round;stroke-miterlimit:4;stroke-dasharray:none;stroke-opacity:1" />
    <path
       style="fill:none;fill-opacity:1;stroke:#000000;stroke-width:0.8246029;stroke-linecap:round;stroke-linejoin:round;stroke-miterlimit:4;stroke-dasharray:none;stroke-opacity:1"
       d="m 97.308566,96.507351 c 0.0465,-0.399601 0.403072,-0.68719 0.795841,-0.642679 0.392908,0.0456 0.675698,0.404509 0.628385,0.808501 -0.04709,0.404349 -0.405257,0.689258 -0.797962,0.642268 -0.392785,-0.0466 -0.672878,-0.408059 -0.626264,-0.80809 z"
       id="path5049"
       sodipodi:nodetypes="ccccc" />
    <path
       sodipodi:nodetypes="ccccc"
       id="path5051"
       d="m 93.29919,95.032052 c 0.04651,-0.39962 0.403074,-0.687201 0.795842,-0.64268 0.392907,0.0456 0.675699,0.4045 0.628386,0.808489 -0.04709,0.40435 -0.405257,0.68926 -0.797962,0.64227 -0.392787,-0.0466 -0.672878,-0.40805 -0.626266,-0.808079 z"
       style="fill:none;fill-opacity:1;stroke:#000000;stroke-width:0.8246029;stroke-linecap:round;stroke-linejoin:round;stroke-miterlimit:4;stroke-dasharray:none;stroke-opacity:1" />
    <path
       style="fill:none;fill-opacity:1;stroke:#000000;stroke-width:0.8246029;stroke-linecap:round;stroke-linejoin:round;stroke-miterlimit:4;stroke-dasharray:none;stroke-opacity:1"
       d="m 89.280775,97.747471 c 0.0465,-0.399611 0.403071,-0.687189 0.79584,-0.642681 0.392909,0.0456 0.675698,0.404511 0.628385,0.808501 -0.04709,0.404331 -0.405257,0.689239 -0.797959,0.642249 -0.392787,-0.0466 -0.672881,-0.408037 -0.626266,-0.808069 z"
       id="path5053"
       sodipodi:nodetypes="ccccc" />
    <path
       sodipodi:nodetypes="ccccc"
       id="path5055"
       d="m 85.359025,100.63155 c 0.0465,-0.3996 0.403072,-0.687188 0.79584,-0.64268 0.392909,0.0456 0.675701,0.4045 0.628383,0.80851 -0.04709,0.40435 -0.405254,0.68924 -0.797957,0.64226 -0.392789,-0.0466 -0.672877,-0.40805 -0.626266,-0.80809 z"
       style="fill:none;fill-opacity:1;stroke:#000000;stroke-width:0.8246029;stroke-linecap:round;stroke-linejoin:round;stroke-miterlimit:4;stroke-dasharray:none;stroke-opacity:1" />
    <path
       style="fill:none;fill-opacity:1;stroke:#000000;stroke-width:0.8246029;stroke-linecap:round;stroke-linejoin:round;stroke-miterlimit:4;stroke-dasharray:none;stroke-opacity:1"
       d="m 106.49694,106.95894 c -0.0474,0.39949 -0.40309,0.68717 -0.79586,0.64267 -0.3929,-0.0456 -0.6757,-0.40452 -0.62839,-0.80851 0.048,-0.40422 0.40527,-0.68924 0.79797,-0.64225 0.39279,0.0466 0.67287,0.40804 0.62628,0.80809 z"
       id="path5057"
       sodipodi:nodetypes="ccccc" />
    <path
       sodipodi:nodetypes="ccccc"
       id="path5059"
       d="m 102.48845,109.91064 c -0.0474,0.39948 -0.40307,0.68719 -0.79584,0.64268 -0.39291,-0.0456 -0.6757,-0.40452 -0.62839,-0.80851 0.0469,-0.40437 0.40527,-0.68925 0.79797,-0.64226 0.39278,0.0466 0.67288,0.40804 0.62626,0.80809 z"
       style="fill:none;fill-opacity:1;stroke:#000000;stroke-width:0.8246029;stroke-linecap:round;stroke-linejoin:round;stroke-miterlimit:4;stroke-dasharray:none;stroke-opacity:1" />
    <path
       style="fill:none;fill-opacity:1;stroke:#000000;stroke-width:0.8246029;stroke-linecap:round;stroke-linejoin:round;stroke-miterlimit:4;stroke-dasharray:none;stroke-opacity:1"
       d="m 98.436631,112.89616 c -0.0465,0.3996 -0.403069,0.68719 -0.795841,0.64268 -0.392908,-0.0456 -0.675698,-0.40451 -0.628382,-0.80851 0.04709,-0.40434 0.405254,-0.68924 0.797959,-0.64226 0.392785,0.0466 0.672878,0.40806 0.626264,0.80809 z"
       id="path5061"
       sodipodi:nodetypes="ccccc" />
    <path
       sodipodi:nodetypes="ccccc"
       id="path5063"
       d="m 94.514881,115.78025 c -0.0465,0.3996 -0.403071,0.68719 -0.79584,0.64268 -0.392909,-0.0456 -0.675698,-0.40451 -0.628383,-0.80852 0.04709,-0.40433 0.405255,-0.68923 0.797957,-0.64225 0.392787,0.0466 0.672881,0.40805 0.626266,0.80809 z"
       style="fill:none;fill-opacity:1;stroke:#000000;stroke-width:0.8246029;stroke-linecap:round;stroke-linejoin:round;stroke-miterlimit:4;stroke-dasharray:none;stroke-opacity:1" />
    <path
       style="fill:none;fill-opacity:1;stroke:#000000;stroke-width:0.8246029;stroke-linecap:round;stroke-linejoin:round;stroke-miterlimit:4;stroke-dasharray:none;stroke-opacity:1"
       d="m 98.524255,117.25555 c -0.0463,0.39963 -0.403071,0.68719 -0.79584,0.64268 -0.392909,-0.0456 -0.675698,-0.40451 -0.628385,-0.8085 0.04709,-0.40435 0.405257,-0.68925 0.797962,-0.64226 0.392784,0.0466 0.672872,0.40805 0.626263,0.80808 z"
       id="path5065"
       sodipodi:nodetypes="ccccc" />
    <path
       sodipodi:nodetypes="ccccc"
       id="path5067"
       d="m 102.54267,114.54013 c -0.0474,0.39949 -0.40307,0.68719 -0.79584,0.64268 -0.39291,-0.0456 -0.6757,-0.40451 -0.62839,-0.80851 0.0469,-0.40435 0.40526,-0.68924 0.79796,-0.64224 0.39279,0.0466 0.6729,0.40803 0.62627,0.80807 z"
       style="fill:none;fill-opacity:1;stroke:#000000;stroke-width:0.8246029;stroke-linecap:round;stroke-linejoin:round;stroke-miterlimit:4;stroke-dasharray:none;stroke-opacity:1" />
    <path
       style="fill:none;fill-opacity:1;stroke:#000000;stroke-width:0.8246029;stroke-linecap:round;stroke-linejoin:round;stroke-miterlimit:4;stroke-dasharray:none;stroke-opacity:1"
       d="m 106.46443,111.65605 c -0.0474,0.39949 -0.40308,0.68718 -0.79585,0.64268 -0.3929,-0.0456 -0.67569,-0.40452 -0.62838,-0.80852 0.048,-0.40422 0.40525,-0.68923 0.79795,-0.64225 0.39279,0.0466 0.67288,0.40805 0.62628,0.80809 z"
       id="path5069"
       sodipodi:nodetypes="ccccc" />
  </g>
</svg>
